<svg width="25" height="29" viewBox="0 0 25 29" fill="none" xmlns="http://www.w3.org/2000/svg">
<path d="M12.408 0.808C11.688 0.808 11.096 1.016 10.632 1.432C10.184 1.864 9.96 2.392 9.96 3.016C9.96 3.656 10.184 4.192 10.632 4.624C11.096 5.056 11.688 5.272 12.408 5.272C13.112 5.272 13.688 5.056 14.136 4.624C14.6 4.192 14.832 3.656 14.832 3.016C14.832 2.392 14.6 1.864 14.136 1.432C13.688 1.016 13.112 0.808 12.408 0.808Z" fill="#FFBB00"/>
<path d="M12.408 28.192C11.688 28.192 11.096 27.984 10.632 27.568C10.184 27.136 9.96 26.608 9.96 25.984C9.96 25.344 10.184 24.808 10.632 24.376C11.096 23.944 11.688 23.728 12.408 23.728C13.112 23.728 13.688 23.944 14.136 24.376C14.6 24.808 14.832 25.344 14.832 25.984C14.832 26.608 14.6 27.136 14.136 27.568C13.688 27.984 13.112 28.192 12.408 28.192Z" fill="#FFBB00"/>
<line y1="14.3889" x2="25" y2="14.3889" stroke="#FFBB00" stroke-width="3"/>
</svg>
